<svg xmlns="http://www.w3.org/2000/svg" viewBox="0 0 1100 1614" width="1100" height="1614">
  <rect width="100%" height="100%" fill="#0a0e14"/>
  <defs>
    <style>
      @import url('https://fonts.googleapis.com/css2?family=JetBrains+Mono:wght@300;400;500;600&amp;family=DM+Sans:wght@300;400;500;600;700&amp;display=swap');
    </style>
    <marker id="arrowhead" markerWidth="8" markerHeight="6" refX="4" refY="3" orient="auto" markerUnits="userSpaceOnUse">
      <polygon points="0 0, 8 3, 0 6" fill="#1e2a3a"/>
    </marker>
    <linearGradient id="connector-grad" x1="0" y1="0" x2="0" y2="1">
      <stop offset="0%" stop-color="#2a3f5a"/>
      <stop offset="100%" stop-color="#1e2a3a"/>
    </linearGradient>
  </defs>
  <text x="550" y="76" text-anchor="middle" font-family="'JetBrains Mono', monospace" font-weight="600" font-size="28" fill="#e8edf3">
    <tspan fill="#3ddc84">taproot</tspan> · system architecture
  </text>
  <text x="550" y="97" text-anchor="middle" font-family="'JetBrains Mono', monospace" font-weight="300" font-size="13" fill="#5a6a7a">natural language analytics over BigQuery via MCP
  </text>
  <text x="36" y="163" font-family="'JetBrains Mono', monospace" font-weight="500" font-size="10" letter-spacing="2" fill="#5a6a7a">CLIENT LAYER</text>
  <g>
    <rect x="32" y="173" width="1036" height="94" rx="10" fill="#111820" stroke="#1e2a3a" stroke-width="1"/>
    <rect x="32" y="173" width="1036" height="2" rx="10" fill="#4fc3f7"/>
    <text x="550" y="205" text-anchor="middle" font-family="'JetBrains Mono', monospace" font-weight="500" font-size="14" fill="#e8edf3">
      <tspan fill="#4fc3f7">◇</tspan> Claude Desktop / claude.ai
    </text>
    <text x="550" y="221" text-anchor="middle" font-family="'DM Sans', sans-serif" font-size="12" fill="#5a6a7a">
      <tspan x="550" dy="0">MCP client — handles OAuth dance, sends tool calls, renders responses</tspan>
    </text>
    <rect x="406" y="229" width="88" height="14" rx="4" fill="rgba(255,255,255,0.04)" stroke="rgba(255,255,255,0.06)" stroke-width="1"/>
    <text x="414" y="241" font-family="'JetBrains Mono', monospace" font-size="10" fill="#5a6a7a">MCP Protocol
    </text>
    <rect x="500" y="229" width="82" height="14" rx="4" fill="rgba(255,255,255,0.04)" stroke="rgba(255,255,255,0.06)" stroke-width="1"/>
    <text x="508" y="241" font-family="'JetBrains Mono', monospace" font-size="10" fill="#5a6a7a">OAuth2 PKCE
    </text>
    <rect x="588" y="229" width="106" height="14" rx="4" fill="rgba(255,255,255,0.04)" stroke="rgba(255,255,255,0.06)" stroke-width="1"/>
    <text x="596" y="241" font-family="'JetBrains Mono', monospace" font-size="10" fill="#5a6a7a">Streamable HTTP
    </text>
  </g>
  <line x1="550" y1="307" x2="550" y2="335" stroke="url(#connector-grad)" stroke-width="2" marker-end="url(#arrowhead)"/>
  <text x="534" y="324.33334" text-anchor="end" font-family="'JetBrains Mono', monospace" font-size="10" fill="#5a6a7a">Streamable HTTP + SSE
  </text>
  <rect x="32" y="339" width="1036" height="944" rx="14" fill="rgba(17,24,32,0.5)" stroke="#1e2a3a" stroke-width="1"/>
  <rect x="51" y="319" width="226" height="14" fill="#0a0e14"/>
  <text x="56" y="329" font-family="'JetBrains Mono', monospace" font-weight="500" font-size="10" letter-spacing="2" fill="#3ddc84">TAPROOT SERVER · CLOUD RUN</text>
  <text x="60" y="373" font-family="'JetBrains Mono', monospace" font-weight="500" font-size="10" letter-spacing="2" fill="#5a6a7a">EDGE</text>
  <g>
    <rect x="56" y="383" width="238" height="112" rx="10" fill="#111820" stroke="#1e2a3a" stroke-width="1"/>
    <rect x="56" y="383" width="238" height="2" rx="10" fill="#3ddc84"/>
    <text x="76" y="415" text-anchor="start" font-family="'JetBrains Mono', monospace" font-weight="500" font-size="14" fill="#e8edf3">
      <tspan fill="#3ddc84">◈</tspan> Auth
    </text>
    <text x="76" y="431" text-anchor="start" font-family="'DM Sans', sans-serif" font-size="12" fill="#5a6a7a">
      <tspan x="76" dy="0">Google JWT validation, domain</tspan>
      <tspan x="76" dy="18">gating</tspan>
    </text>
    <rect x="76" y="457" width="106" height="14" rx="4" fill="rgba(255,255,255,0.04)" stroke="rgba(255,255,255,0.06)" stroke-width="1"/>
    <text x="84" y="469" font-family="'JetBrains Mono', monospace" font-size="10" fill="#5a6a7a">axum middleware
    </text>
  </g>
  <g>
    <rect x="306" y="383" width="238" height="112" rx="10" fill="#111820" stroke="#1e2a3a" stroke-width="1"/>
    <rect x="306" y="383" width="238" height="2" rx="10" fill="#3ddc84"/>
    <text x="326" y="415" text-anchor="start" font-family="'JetBrains Mono', monospace" font-weight="500" font-size="14" fill="#e8edf3">
      <tspan fill="#3ddc84">◈</tspan> Transport
    </text>
    <text x="326" y="431" text-anchor="start" font-family="'DM Sans', sans-serif" font-size="12" fill="#5a6a7a">
      <tspan x="326" dy="0">MCP server, tool dispatch, SSE</tspan>
      <tspan x="326" dy="18">streams</tspan>
    </text>
    <rect x="326" y="457" width="64" height="14" rx="4" fill="rgba(255,255,255,0.04)" stroke="rgba(255,255,255,0.06)" stroke-width="1"/>
    <text x="334" y="469" font-family="'JetBrains Mono', monospace" font-size="10" fill="#5a6a7a">rmcp 0.8
    </text>
  </g>
  <g>
    <rect x="556" y="383" width="238" height="94" rx="10" fill="#111820" stroke="#1e2a3a" stroke-width="1"/>
    <rect x="556" y="383" width="238" height="2" rx="10" fill="#3ddc84"/>
    <text x="576" y="415" text-anchor="start" font-family="'JetBrains Mono', monospace" font-weight="500" font-size="14" fill="#e8edf3">
      <tspan fill="#3ddc84">◈</tspan> Intercept
    </text>
    <text x="576" y="431" text-anchor="start" font-family="'DM Sans', sans-serif" font-size="12" fill="#5a6a7a">
      <tspan x="576" dy="0">Mechanical query capture to Redis</tspan>
    </text>
    <rect x="576" y="439" width="106" height="14" rx="4" fill="rgba(255,255,255,0.04)" stroke="rgba(255,255,255,0.06)" stroke-width="1"/>
    <text x="584" y="451" font-family="'JetBrains Mono', monospace" font-size="10" fill="#5a6a7a">axum middleware
    </text>
  </g>
  <g>
    <rect x="806" y="383" width="238" height="112" rx="10" fill="#111820" stroke="#1e2a3a" stroke-width="1"/>
    <rect x="806" y="383" width="238" height="2" rx="10" fill="#3ddc84"/>
    <text x="826" y="415" text-anchor="start" font-family="'JetBrains Mono', monospace" font-weight="500" font-size="14" fill="#e8edf3">
      <tspan fill="#3ddc84">◈</tspan> Config
    </text>
    <text x="826" y="431" text-anchor="start" font-family="'DM Sans', sans-serif" font-size="12" fill="#5a6a7a">
      <tspan x="826" dy="0">Runtime settings, cost budgets,</tspan>
      <tspan x="826" dy="18">feature flags</tspan>
    </text>
    <rect x="826" y="457" width="52" height="14" rx="4" fill="rgba(255,255,255,0.04)" stroke="rgba(255,255,255,0.06)" stroke-width="1"/>
    <text x="834" y="469" font-family="'JetBrains Mono', monospace" font-size="10" fill="#5a6a7a">confyg
    </text>
    <rect x="884" y="457" width="40" height="14" rx="4" fill="rgba(255,255,255,0.04)" stroke="rgba(255,255,255,0.06)" stroke-width="1"/>
    <text x="892" y="469" font-family="'JetBrains Mono', monospace" font-size="10" fill="#5a6a7a">twyg
    </text>
  </g>
  <circle cx="536" cy="542.5" r="1.5" fill="#2a3f5a"/>
  <circle cx="543" cy="542.5" r="1.5" fill="#2a3f5a"/>
  <circle cx="550" cy="542.5" r="1.5" fill="#2a3f5a"/>
  <circle cx="557" cy="542.5" r="1.5" fill="#2a3f5a"/>
  <circle cx="564" cy="542.5" r="1.5" fill="#2a3f5a"/>
  <text x="60" y="564" font-family="'JetBrains Mono', monospace" font-weight="500" font-size="10" letter-spacing="2" fill="#5a6a7a">TOOLS — 20 MCP TOOLS EXPOSED TO CLAUDE</text>
  <g>
    <rect x="56" y="574" width="238" height="106" rx="10" fill="#111820" stroke="#1e2a3a" stroke-width="1"/>
    <rect x="56" y="574" width="238" height="2" rx="10" fill="#ffb74d"/>
    <text x="76" y="606" text-anchor="start" font-family="'JetBrains Mono', monospace" font-weight="500" font-size="14" fill="#e8edf3">
      <tspan fill="#ffb74d">⊕</tspan> BQ Tools
    </text>
    <text x="76" y="622" text-anchor="start" font-family="'DM Sans', sans-serif" font-size="12" fill="#5a6a7a">
      <tspan x="76" dy="0">execute_query, explain_query,</tspan>
      <tspan x="76" dy="18">describe_table, get_sample_rows,</tspan>
      <tspan x="76" dy="18">list_datasets</tspan>
    </text>
  </g>
  <g>
    <rect x="306" y="574" width="238" height="88" rx="10" fill="#111820" stroke="#1e2a3a" stroke-width="1"/>
    <rect x="306" y="574" width="238" height="2" rx="10" fill="#ffb74d"/>
    <text x="326" y="606" text-anchor="start" font-family="'JetBrains Mono', monospace" font-weight="500" font-size="14" fill="#e8edf3">
      <tspan fill="#ffb74d">⊕</tspan> Knowledge
    </text>
    <text x="326" y="622" text-anchor="start" font-family="'DM Sans', sans-serif" font-size="12" fill="#5a6a7a">
      <tspan x="326" dy="0">search_domain, semantic_search,</tspan>
      <tspan x="326" dy="18">get_concept, list_concepts</tspan>
    </text>
  </g>
  <g>
    <rect x="556" y="574" width="238" height="106" rx="10" fill="#111820" stroke="#1e2a3a" stroke-width="1"/>
    <rect x="556" y="574" width="238" height="2" rx="10" fill="#ffb74d"/>
    <text x="576" y="606" text-anchor="start" font-family="'JetBrains Mono', monospace" font-weight="500" font-size="14" fill="#e8edf3">
      <tspan fill="#ffb74d">⊕</tspan> Graph
    </text>
    <text x="576" y="622" text-anchor="start" font-family="'DM Sans', sans-serif" font-size="12" fill="#5a6a7a">
      <tspan x="576" dy="0">query_knowledge_graph,</tspan>
      <tspan x="576" dy="18">related_concepts, find_path,</tspan>
      <tspan x="576" dy="18">neighborhood</tspan>
    </text>
  </g>
  <g>
    <rect x="806" y="574" width="238" height="106" rx="10" fill="#111820" stroke="#1e2a3a" stroke-width="1"/>
    <rect x="806" y="574" width="238" height="2" rx="10" fill="#ffb74d"/>
    <text x="826" y="606" text-anchor="start" font-family="'JetBrains Mono', monospace" font-weight="500" font-size="14" fill="#e8edf3">
      <tspan fill="#ffb74d">⊕</tspan> User Model
    </text>
    <text x="826" y="622" text-anchor="start" font-family="'DM Sans', sans-serif" font-size="12" fill="#5a6a7a">
      <tspan x="826" dy="0">get_user_profile,</tspan>
      <tspan x="826" dy="18">search_user_model,</tspan>
      <tspan x="826" dy="18">get_query_history, get_daily_cost</tspan>
    </text>
  </g>
  <circle cx="536" cy="727.5" r="1.5" fill="#2a3f5a"/>
  <circle cx="543" cy="727.5" r="1.5" fill="#2a3f5a"/>
  <circle cx="550" cy="727.5" r="1.5" fill="#2a3f5a"/>
  <circle cx="557" cy="727.5" r="1.5" fill="#2a3f5a"/>
  <circle cx="564" cy="727.5" r="1.5" fill="#2a3f5a"/>
  <text x="60" y="749" font-family="'JetBrains Mono', monospace" font-weight="500" font-size="10" letter-spacing="2" fill="#5a6a7a">INTELLIGENCE</text>
  <rect x="56" y="759" width="988" height="296" rx="10" fill="none" stroke="rgba(255,255,255,0.1)" stroke-width="1" stroke-dasharray="6 3"/>
  <rect x="69" y="740" width="120.4" height="13" fill="#111820"/>
  <text x="74" y="749" font-family="'JetBrains Mono', monospace" font-weight="500" font-size="9" letter-spacing="1.5" fill="#b39ddb">KNOWLEDGE ENGINE</text>
  <g>
    <rect x="74" y="777" width="309.33334" height="94" rx="10" fill="#111820" stroke="#1e2a3a" stroke-width="1"/>
    <rect x="74" y="777" width="309.33334" height="2" rx="10" fill="#b39ddb"/>
    <text x="94" y="809" text-anchor="start" font-family="'JetBrains Mono', monospace" font-weight="500" font-size="14" fill="#e8edf3">
      <tspan fill="#b39ddb">◆</tspan> Graph DB
    </text>
    <text x="94" y="825" text-anchor="start" font-family="'DM Sans', sans-serif" font-size="12" fill="#5a6a7a">
      <tspan x="94" dy="0">153 concepts, 1,232 relationships</tspan>
    </text>
    <rect x="94" y="833" width="64" height="14" rx="4" fill="rgba(255,255,255,0.04)" stroke="rgba(255,255,255,0.06)" stroke-width="1"/>
    <text x="102" y="845" font-family="'JetBrains Mono', monospace" font-size="10" fill="#5a6a7a">petgraph
    </text>
  </g>
  <g>
    <rect x="395.33334" y="777" width="309.33334" height="94" rx="10" fill="#111820" stroke="#1e2a3a" stroke-width="1"/>
    <rect x="395.33334" y="777" width="309.33334" height="2" rx="10" fill="#b39ddb"/>
    <text x="415.33334" y="809" text-anchor="start" font-family="'JetBrains Mono', monospace" font-weight="500" font-size="14" fill="#e8edf3">
      <tspan fill="#b39ddb">◆</tspan> Full-Text Search
    </text>
    <text x="415.33334" y="825" text-anchor="start" font-family="'DM Sans', sans-serif" font-size="12" fill="#5a6a7a">
      <tspan x="415.33334" dy="0">Ranked keyword search over concept corpus</tspan>
    </text>
    <rect x="415.33334" y="833" width="58" height="14" rx="4" fill="rgba(255,255,255,0.04)" stroke="rgba(255,255,255,0.06)" stroke-width="1"/>
    <text x="423.33334" y="845" font-family="'JetBrains Mono', monospace" font-size="10" fill="#5a6a7a">tantivy
    </text>
  </g>
  <g>
    <rect x="716.6667" y="777" width="309.33334" height="94" rx="10" fill="#111820" stroke="#1e2a3a" stroke-width="1"/>
    <rect x="716.6667" y="777" width="309.33334" height="2" rx="10" fill="#b39ddb"/>
    <text x="736.6667" y="809" text-anchor="start" font-family="'JetBrains Mono', monospace" font-weight="500" font-size="14" fill="#e8edf3">
      <tspan fill="#b39ddb">◆</tspan> Vector Search
    </text>
    <text x="736.6667" y="825" text-anchor="start" font-family="'DM Sans', sans-serif" font-size="12" fill="#5a6a7a">
      <tspan x="736.6667" dy="0">Semantic similarity, hybrid mode</tspan>
    </text>
    <rect x="736.6667" y="833" width="118.00001" height="14" rx="4" fill="rgba(255,255,255,0.04)" stroke="rgba(255,255,255,0.06)" stroke-width="1"/>
    <text x="744.6667" y="845" font-family="'JetBrains Mono', monospace" font-size="10" fill="#5a6a7a">bge-small-en-v1.5
    </text>
  </g>
  <g>
    <rect x="74" y="907" width="470" height="94" rx="10" fill="#111820" stroke="#1e2a3a" stroke-width="1"/>
    <rect x="74" y="907" width="470" height="2" rx="10" fill="#b39ddb"/>
    <text x="94" y="939" text-anchor="start" font-family="'JetBrains Mono', monospace" font-weight="500" font-size="14" fill="#e8edf3">
      <tspan fill="#b39ddb">◆</tspan> Card Loader
    </text>
    <text x="94" y="955" text-anchor="start" font-family="'DM Sans', sans-serif" font-size="12" fill="#5a6a7a">
      <tspan x="94" dy="0">Domain + query-derived concept cards with access_type/access_path</tspan>
    </text>
    <rect x="94" y="963" width="52" height="14" rx="4" fill="rgba(255,255,255,0.04)" stroke="rgba(255,255,255,0.06)" stroke-width="1"/>
    <text x="102" y="975" font-family="'JetBrains Mono', monospace" font-size="10" fill="#5a6a7a">fabryk
    </text>
  </g>
  <g>
    <rect x="556" y="907" width="470" height="94" rx="10" fill="#111820" stroke="#1e2a3a" stroke-width="1"/>
    <rect x="556" y="907" width="470" height="2" rx="10" fill="#b39ddb"/>
    <text x="576" y="939" text-anchor="start" font-family="'JetBrains Mono', monospace" font-weight="500" font-size="14" fill="#e8edf3">
      <tspan fill="#b39ddb">◆</tspan> Content Provider
    </text>
    <text x="576" y="955" text-anchor="start" font-family="'DM Sans', sans-serif" font-size="12" fill="#5a6a7a">
      <tspan x="576" dy="0">In-memory provider, incremental index updates</tspan>
    </text>
    <rect x="576" y="963" width="112" height="14" rx="4" fill="rgba(255,255,255,0.04)" stroke="rgba(255,255,255,0.06)" stroke-width="1"/>
    <text x="584" y="975" font-family="'JetBrains Mono', monospace" font-size="10" fill="#5a6a7a">InMemoryProvider
    </text>
  </g>
  <text x="60" y="1101" font-family="'JetBrains Mono', monospace" font-weight="500" font-size="10" letter-spacing="2" fill="#5a6a7a">INFRASTRUCTURE CLIENTS</text>
  <g>
    <rect x="56" y="1111" width="321.33334" height="112" rx="10" fill="#111820" stroke="#1e2a3a" stroke-width="1"/>
    <rect x="56" y="1111" width="321.33334" height="2" rx="10" fill="#ef5350"/>
    <text x="76" y="1143" text-anchor="start" font-family="'JetBrains Mono', monospace" font-weight="500" font-size="14" fill="#e8edf3">
      <tspan fill="#ef5350">◉</tspan> BigQuery Client
    </text>
    <text x="76" y="1159" text-anchor="start" font-family="'DM Sans', sans-serif" font-size="12" fill="#5a6a7a">
      <tspan x="76" dy="0">Read-only queries, cost estimation, scan</tspan>
      <tspan x="76" dy="18">budgets</tspan>
    </text>
    <rect x="76" y="1185" width="130" height="14" rx="4" fill="rgba(255,255,255,0.04)" stroke="rgba(255,255,255,0.06)" stroke-width="1"/>
    <text x="84" y="1197" font-family="'JetBrains Mono', monospace" font-size="10" fill="#5a6a7a">gcp-bigquery-client
    </text>
  </g>
  <g>
    <rect x="389.33334" y="1111" width="321.33334" height="112" rx="10" fill="#111820" stroke="#1e2a3a" stroke-width="1"/>
    <rect x="389.33334" y="1111" width="321.33334" height="2" rx="10" fill="#4dd0e1"/>
    <text x="409.33334" y="1143" text-anchor="start" font-family="'JetBrains Mono', monospace" font-weight="500" font-size="14" fill="#e8edf3">
      <tspan fill="#4dd0e1">◉</tspan> Redis Client
    </text>
    <text x="409.33334" y="1159" text-anchor="start" font-family="'DM Sans', sans-serif" font-size="12" fill="#5a6a7a">
      <tspan x="409.33334" dy="0">Query history, daily cost tracking, user model</tspan>
      <tspan x="409.33334" dy="18">cards</tspan>
    </text>
    <rect x="409.33334" y="1185" width="64" height="14" rx="4" fill="rgba(255,255,255,0.04)" stroke="rgba(255,255,255,0.06)" stroke-width="1"/>
    <text x="417.33334" y="1197" font-family="'JetBrains Mono', monospace" font-size="10" fill="#5a6a7a">redis-rs
    </text>
  </g>
  <g>
    <rect x="722.6667" y="1111" width="321.33334" height="112" rx="10" fill="#111820" stroke="#1e2a3a" stroke-width="1"/>
    <rect x="722.6667" y="1111" width="321.33334" height="2" rx="10" fill="#4dd0e1"/>
    <text x="742.6667" y="1143" text-anchor="start" font-family="'JetBrains Mono', monospace" font-weight="500" font-size="14" fill="#e8edf3">
      <tspan fill="#4dd0e1">◉</tspan> User Model Engine
    </text>
    <text x="742.6667" y="1159" text-anchor="start" font-family="'DM Sans', sans-serif" font-size="12" fill="#5a6a7a">
      <tspan x="742.6667" dy="0">Pattern analysis, mental model generation,</tspan>
      <tspan x="742.6667" dy="18">profile synthesis</tspan>
    </text>
    <rect x="742.6667" y="1185" width="100" height="14" rx="4" fill="rgba(255,255,255,0.04)" stroke="rgba(255,255,255,0.06)" stroke-width="1"/>
    <text x="750.6667" y="1197" font-family="'JetBrains Mono', monospace" font-size="10" fill="#5a6a7a">async pipeline
    </text>
  </g>
  <text x="367.59998" y="1320" font-family="'JetBrains Mono', monospace" font-size="9" fill="#2a3f5a">↓</text>
  <text x="388.8" y="1320" font-family="'JetBrains Mono', monospace" font-size="9" fill="#5a6a7a">SQL queries</text>
  <text x="496.19998" y="1320" font-family="'JetBrains Mono', monospace" font-size="9" fill="#2a3f5a">↓</text>
  <text x="517.39996" y="1320" font-family="'JetBrains Mono', monospace" font-size="9" fill="#5a6a7a">history + cost</text>
  <text x="641" y="1320" font-family="'JetBrains Mono', monospace" font-size="9" fill="#2a3f5a">↓</text>
  <text x="662.2" y="1320" font-family="'JetBrains Mono', monospace" font-size="9" fill="#5a6a7a">concept cards</text>
  <text x="36" y="1338" font-family="'JetBrains Mono', monospace" font-weight="500" font-size="10" letter-spacing="2" fill="#5a6a7a">EXTERNAL SERVICES</text>
  <g>
    <rect x="32" y="1348" width="337.33334" height="112" rx="10" fill="#111820" stroke="#1e2a3a" stroke-width="1"/>
    <rect x="32" y="1348" width="337.33334" height="2" rx="10" fill="#ef5350"/>
    <text x="52" y="1380" text-anchor="start" font-family="'JetBrains Mono', monospace" font-weight="500" font-size="14" fill="#e8edf3">
      <tspan fill="#ef5350">◯</tspan> BigQuery
    </text>
    <text x="52" y="1396" text-anchor="start" font-family="'DM Sans', sans-serif" font-size="12" fill="#5a6a7a">
      <tspan x="52" dy="0">banyan · banyan_intermediate · banyan_metrics</tspan>
      <tspan x="52" dy="18">— 250M+ rows, partitioned by row_created_ts</tspan>
    </text>
    <rect x="52" y="1422" width="142" height="14" rx="4" fill="rgba(255,255,255,0.04)" stroke="rgba(255,255,255,0.06)" stroke-width="1"/>
    <text x="60" y="1434" font-family="'JetBrains Mono', monospace" font-size="10" fill="#5a6a7a">banyan-analytics-prod
    </text>
  </g>
  <g>
    <rect x="381.33334" y="1348" width="337.33334" height="112" rx="10" fill="#111820" stroke="#1e2a3a" stroke-width="1"/>
    <rect x="381.33334" y="1348" width="337.33334" height="2" rx="10" fill="#4dd0e1"/>
    <text x="401.33334" y="1380" text-anchor="start" font-family="'JetBrains Mono', monospace" font-weight="500" font-size="14" fill="#e8edf3">
      <tspan fill="#4dd0e1">◯</tspan> Redis / Valkey
    </text>
    <text x="401.33334" y="1396" text-anchor="start" font-family="'DM Sans', sans-serif" font-size="12" fill="#5a6a7a">
      <tspan x="401.33334" dy="0">taproot:history:{email}:{ts} ·</tspan>
      <tspan x="401.33334" dy="18">taproot:cost:{email}:{date}</tspan>
    </text>
    <rect x="401.33334" y="1422" width="106" height="14" rx="4" fill="rgba(255,255,255,0.04)" stroke="rgba(255,255,255,0.06)" stroke-width="1"/>
    <text x="409.33334" y="1434" font-family="'JetBrains Mono', monospace" font-size="10" fill="#5a6a7a">GCP Memorystore
    </text>
  </g>
  <g>
    <rect x="730.6667" y="1348" width="337.33334" height="94" rx="10" fill="#111820" stroke="#1e2a3a" stroke-width="1"/>
    <rect x="730.6667" y="1348" width="337.33334" height="2" rx="10" fill="#4fc3f7"/>
    <text x="750.6667" y="1380" text-anchor="start" font-family="'JetBrains Mono', monospace" font-weight="500" font-size="14" fill="#e8edf3">
      <tspan fill="#4fc3f7">◯</tspan> Google OAuth2
    </text>
    <text x="750.6667" y="1396" text-anchor="start" font-family="'DM Sans', sans-serif" font-size="12" fill="#5a6a7a">
      <tspan x="750.6667" dy="0">Identity tokens, Banyan domain validation</tspan>
    </text>
    <rect x="750.6667" y="1404" width="142" height="14" rx="4" fill="rgba(255,255,255,0.04)" stroke="rgba(255,255,255,0.06)" stroke-width="1"/>
    <text x="758.6667" y="1416" font-family="'JetBrains Mono', monospace" font-size="10" fill="#5a6a7a">oauth2.googleapis.com
    </text>
  </g>
  <rect x="214" y="1536" width="10" height="10" rx="3" fill="#4fc3f7"/>
  <text x="230" y="1545" font-family="'JetBrains Mono', monospace" font-size="10" fill="#5a6a7a">Client / Auth
  </text>
  <rect x="332" y="1536" width="10" height="10" rx="3" fill="#3ddc84"/>
  <text x="348" y="1545" font-family="'JetBrains Mono', monospace" font-size="10" fill="#5a6a7a">Server Edge
  </text>
  <rect x="438" y="1536" width="10" height="10" rx="3" fill="#ffb74d"/>
  <text x="454" y="1545" font-family="'JetBrains Mono', monospace" font-size="10" fill="#5a6a7a">MCP Tools
  </text>
  <rect x="532" y="1536" width="10" height="10" rx="3" fill="#b39ddb"/>
  <text x="548" y="1545" font-family="'JetBrains Mono', monospace" font-size="10" fill="#5a6a7a">Knowledge Engine
  </text>
  <rect x="668" y="1536" width="10" height="10" rx="3" fill="#ef5350"/>
  <text x="684" y="1545" font-family="'JetBrains Mono', monospace" font-size="10" fill="#5a6a7a">BigQuery
  </text>
  <rect x="756" y="1536" width="10" height="10" rx="3" fill="#4dd0e1"/>
  <text x="772" y="1545" font-family="'JetBrains Mono', monospace" font-size="10" fill="#5a6a7a">Redis / Persistence
  </text>
</svg>
